<svg xmlns="http://www.w3.org/2000/svg" viewBox="0 0 64 64" fill="none">
  <g stroke="#39e56f" stroke-width="2.6" stroke-linecap="round" stroke-linejoin="round">
    <path d="M32 4 54 11v17c0 13.7-8.5 24.4-22 31C18.5 52.4 10 41.7 10 28V11L32 4Z"/>
    <path d="M16 16.5h32"/>
    <path d="M32 10v41"/>
    <path d="m16 16.5 16 12 16-12"/>
    <path d="m16 16.5 4.5 22L32 28.5l11.5 10L48 16.5"/>
    <path d="m20.5 38.5 11.5 12 11.5-12"/>
    <path d="m10.5 27.5 10 11M53.5 27.5l-10 11"/>
  </g>
  <g fill="#39e56f">
    <circle cx="16" cy="16.5" r="2.2"/>
    <circle cx="32" cy="10" r="2.2"/>
    <circle cx="48" cy="16.5" r="2.2"/>
    <circle cx="20.5" cy="38.5" r="2.2"/>
    <circle cx="32" cy="28.5" r="2.4"/>
    <circle cx="43.5" cy="38.5" r="2.2"/>
    <circle cx="32" cy="50.5" r="2.2"/>
  </g>
</svg>
